<svg width="325" height="565" viewBox="0 0 325 565" fill="none" xmlns="http://www.w3.org/2000/svg">
    <path
        d="M192.433 380.722C192.433 378.497 194.237 376.693 196.461 376.693C198.686 376.693 200.49 378.497 200.49 380.722C200.49 382.946 198.686 384.75 196.461 384.75C194.237 384.775 192.433 382.946 192.433 380.722Z"
        fill="url(#paint0_linear)" />
    <path d="M197.129 316.366H195.794V378.423H197.129V316.366Z" fill="url(#paint1_linear)" />
    <path
        d="M88.5099 290.614C88.5099 288.389 90.3141 286.585 92.5384 286.585C94.7626 286.585 96.5667 288.389 96.5667 290.614C96.5667 292.838 94.7626 294.642 92.5384 294.642C90.3141 294.642 88.5099 292.838 88.5099 290.614Z"
        fill="url(#paint2_linear)" />
    <path d="M93.2056 127.673H91.871V288.291H93.2056V127.673Z" fill="url(#paint3_linear)" />
    <path
        d="M42.5663 151.745C42.5663 149.521 44.3704 147.717 46.5947 147.717C48.819 147.717 50.6231 149.521 50.6231 151.745C50.6231 153.969 48.819 155.773 46.5947 155.773C44.3951 155.798 42.5663 153.994 42.5663 151.745Z"
        fill="url(#paint4_linear)" />
    <path d="M47.2868 60.4508H45.9522V149.446H47.2868V60.4508Z" fill="url(#paint5_linear)" />
    <path
        d="M167.299 221.884C167.299 219.659 169.103 217.855 171.327 217.855C173.551 217.855 175.356 219.659 175.356 221.884C175.356 224.108 173.551 225.912 171.327 225.912C169.103 225.937 167.299 224.108 167.299 221.884Z"
        fill="url(#paint6_linear)" />
    <path d="M171.994 130.59H170.66V219.585H171.994V130.59Z" fill="url(#paint7_linear)" />
    <path
        d="M294.824 228.903C294.824 226.678 296.628 224.874 298.852 224.874C301.076 224.874 302.881 226.678 302.881 228.903C302.881 231.127 301.076 232.931 298.852 232.931C296.628 232.931 294.824 231.127 294.824 228.903Z"
        fill="url(#paint8_linear)" />
    <path d="M299.544 137.608H298.209V226.604H299.544V137.608Z" fill="url(#paint9_linear)" />
    <path
        d="M155.461 296.273C155.461 294.049 157.265 292.245 159.489 292.245C161.713 292.245 163.517 294.049 163.517 296.273C163.517 298.498 161.713 300.302 159.489 300.302C157.265 300.326 155.461 298.498 155.461 296.273Z"
        fill="url(#paint10_linear)" />
    <path d="M160.181 127.055H158.846V293.95H160.181V127.055Z" fill="url(#paint11_linear)" />
    <path
        d="M178.914 265.677C178.914 263.453 180.719 261.649 182.943 261.649C185.167 261.649 186.971 263.453 186.971 265.677C186.971 267.901 185.167 269.706 182.943 269.706C180.719 269.706 178.914 267.901 178.914 265.677Z"
        fill="url(#paint12_linear)" />
    <path d="M183.635 130.12H182.3V263.354H183.635V130.12Z" fill="url(#paint13_linear)" />
    <path
        d="M121.429 442.655C121.429 440.431 123.233 438.627 125.458 438.627C127.682 438.627 129.486 440.431 129.486 442.655C129.486 444.879 127.682 446.684 125.458 446.684C123.258 446.684 121.429 444.879 121.429 442.655Z"
        fill="url(#paint14_linear)" />
    <path d="M126.15 133.308H124.815V440.332H126.15V133.308Z" fill="url(#paint15_linear)" />
    <path
        d="M238.945 309.347C238.945 307.123 240.749 305.319 242.973 305.319C245.198 305.319 247.002 307.123 247.002 309.347C247.002 311.571 245.198 313.375 242.973 313.375C240.749 313.375 238.945 311.571 238.945 309.347Z"
        fill="url(#paint16_linear)" />
    <path d="M243.665 0H242.331V307.024H243.665V0Z" fill="url(#paint17_linear)" />
    <path
        d="M300.113 326.523C300.113 324.299 301.917 322.495 304.141 322.495C306.365 322.495 308.169 324.299 308.169 326.523C308.169 328.748 306.365 330.552 304.141 330.552C301.917 330.552 300.113 328.748 300.113 326.523Z"
        fill="url(#paint18_linear)" />
    <path d="M304.808 17.1764H303.474V324.2H304.808V17.1764Z" fill="url(#paint19_linear)" />
    <path
        d="M53.2675 510.248C53.2675 508.024 55.0717 506.22 57.296 506.22C59.5202 506.22 61.3244 508.024 61.3244 510.248C61.3244 512.473 59.5202 514.277 57.296 514.277C55.0964 514.277 53.2675 512.473 53.2675 510.248Z"
        fill="url(#paint20_linear)" />
    <path d="M57.988 200.901H56.6534V507.925H57.988V200.901Z" fill="url(#paint21_linear)" />
    <path
        d="M311.086 388.63C311.086 386.406 312.89 384.602 315.114 384.602C317.338 384.602 319.142 386.406 319.142 388.63C319.142 390.854 317.338 392.659 315.114 392.659C312.89 392.659 311.086 390.854 311.086 388.63Z"
        fill="url(#paint22_linear)" />
    <path d="M315.806 79.2831H314.471V386.307H315.806V79.2831Z" fill="url(#paint23_linear)" />
    <path
        d="M0.552277 428.197C0.552277 425.973 2.35635 424.169 4.58062 424.169C6.80489 424.169 8.60904 425.973 8.60904 428.197C8.60904 430.422 6.80489 432.226 4.58062 432.226C2.35635 432.251 0.552277 430.446 0.552277 428.197Z"
        fill="url(#paint24_linear)" />
    <path d="M5.24795 256.014H3.91336V425.874H5.24795V256.014Z" fill="url(#paint25_linear)" />
    <path
        d="M69.999 243.089C69.999 240.864 71.8031 239.06 74.0274 239.06C76.2517 239.06 78.0558 240.864 78.0558 243.089C78.0558 245.313 76.2517 247.117 74.0274 247.117C71.8031 247.142 69.999 245.338 69.999 243.089Z"
        fill="url(#paint26_linear)" />
    <path d="M74.7194 117.763H73.3849V240.79H74.7194V117.763Z" fill="url(#paint27_linear)" />
    <path
        d="M289.634 460.202C289.634 457.978 291.438 456.174 293.662 456.174C295.886 456.174 297.691 457.978 297.691 460.202C297.691 462.427 295.886 464.231 293.662 464.231C291.438 464.231 289.634 462.427 289.634 460.202Z"
        fill="url(#paint28_linear)" />
    <path d="M294.354 287.994H293.02V457.855H294.354V287.994Z" fill="url(#paint29_linear)" />
    <defs>
        <linearGradient id="paint0_linear" x1="196.462" y1="358.066" x2="196.462" y2="288.068"
            gradientUnits="userSpaceOnUse">
            <stop stop-color="#A4FFFF" />
            <stop offset="1" stop-color="#A4FFFF" stop-opacity="0" />
        </linearGradient>
        <linearGradient id="paint1_linear" x1="196.461" y1="364.217" x2="196.461" y2="315.388"
            gradientUnits="userSpaceOnUse">
            <stop stop-color="#A4FFFF" />
            <stop offset="1" stop-color="#A4FFFF" stop-opacity="0" />
        </linearGradient>
        <linearGradient id="paint2_linear" x1="92.5386" y1="267.943" x2="92.5386" y2="197.923"
            gradientUnits="userSpaceOnUse">
            <stop stop-color="#A4FFFF" />
            <stop offset="1" stop-color="#A4FFFF" stop-opacity="0" />
        </linearGradient>
        <linearGradient id="paint3_linear" x1="92.5373" y1="251.561" x2="92.5373" y2="125.179"
            gradientUnits="userSpaceOnUse">
            <stop stop-color="#A4FFFF" />
            <stop offset="1" stop-color="#A4FFFF" stop-opacity="0" />
        </linearGradient>
        <linearGradient id="paint4_linear" x1="46.6147" y1="129.083" x2="46.6147" y2="59.063"
            gradientUnits="userSpaceOnUse">
            <stop stop-color="#A4FFFF" />
            <stop offset="1" stop-color="#A4FFFF" stop-opacity="0" />
        </linearGradient>
        <linearGradient id="paint5_linear" x1="46.6135" y1="129.083" x2="46.6135" y2="59.0636"
            gradientUnits="userSpaceOnUse">
            <stop stop-color="#A4FFFF" />
            <stop offset="1" stop-color="#A4FFFF" stop-opacity="0" />
        </linearGradient>
        <linearGradient id="paint6_linear" x1="171.325" y1="199.207" x2="171.325" y2="129.166"
            gradientUnits="userSpaceOnUse">
            <stop stop-color="#A4FFFF" />
            <stop offset="1" stop-color="#A4FFFF" stop-opacity="0" />
        </linearGradient>
        <linearGradient id="paint7_linear" x1="171.325" y1="199.213" x2="171.325" y2="129.194"
            gradientUnits="userSpaceOnUse">
            <stop stop-color="#A4FFFF" />
            <stop offset="1" stop-color="#A4FFFF" stop-opacity="0" />
        </linearGradient>
        <linearGradient id="paint8_linear" x1="298.867" y1="206.234" x2="298.867" y2="136.214"
            gradientUnits="userSpaceOnUse">
            <stop stop-color="#A4FFFF" />
            <stop offset="1" stop-color="#A4FFFF" stop-opacity="0" />
        </linearGradient>
        <linearGradient id="paint9_linear" x1="298.866" y1="206.234" x2="298.866" y2="136.215"
            gradientUnits="userSpaceOnUse">
            <stop stop-color="#A4FFFF" />
            <stop offset="1" stop-color="#A4FFFF" stop-opacity="0" />
        </linearGradient>
        <linearGradient id="paint10_linear" x1="159.504" y1="256.788" x2="159.504" y2="132.089"
            gradientUnits="userSpaceOnUse">
            <stop stop-color="#A4FFFF" />
            <stop offset="1" stop-color="#A4FFFF" stop-opacity="0" />
        </linearGradient>
        <linearGradient id="paint11_linear" x1="159.505" y1="256.79" x2="159.505" y2="132.092"
            gradientUnits="userSpaceOnUse">
            <stop stop-color="#A4FFFF" />
            <stop offset="1" stop-color="#A4FFFF" stop-opacity="0" />
        </linearGradient>
        <linearGradient id="paint12_linear" x1="182.958" y1="226.18" x2="182.958" y2="101.481"
            gradientUnits="userSpaceOnUse">
            <stop stop-color="#A4FFFF" />
            <stop offset="1" stop-color="#A4FFFF" stop-opacity="0" />
        </linearGradient>
        <linearGradient id="paint13_linear" x1="182.959" y1="233.675" x2="182.959" y2="134.127"
            gradientUnits="userSpaceOnUse">
            <stop stop-color="#A4FFFF" />
            <stop offset="1" stop-color="#A4FFFF" stop-opacity="0" />
        </linearGradient>
        <linearGradient id="paint14_linear" x1="125.478" y1="403.166" x2="125.478" y2="278.467"
            gradientUnits="userSpaceOnUse">
            <stop stop-color="#A4FFFF" />
            <stop offset="1" stop-color="#A4FFFF" stop-opacity="0" />
        </linearGradient>
        <linearGradient id="paint15_linear" x1="125.478" y1="371.961" x2="125.478" y2="142.573"
            gradientUnits="userSpaceOnUse">
            <stop stop-color="#A4FFFF" />
            <stop offset="1" stop-color="#A4FFFF" stop-opacity="0" />
        </linearGradient>
        <linearGradient id="paint16_linear" x1="242.985" y1="269.841" x2="242.985" y2="145.104"
            gradientUnits="userSpaceOnUse">
            <stop stop-color="#A4FFFF" />
            <stop offset="1" stop-color="#A4FFFF" stop-opacity="0" />
        </linearGradient>
        <linearGradient id="paint17_linear" x1="242.985" y1="238.647" x2="242.985" y2="9.25916"
            gradientUnits="userSpaceOnUse">
            <stop stop-color="#A4FFFF" />
            <stop offset="1" stop-color="#A4FFFF" stop-opacity="0" />
        </linearGradient>
        <linearGradient id="paint18_linear" x1="304.144" y1="287.022" x2="304.144" y2="162.288"
            gradientUnits="userSpaceOnUse">
            <stop stop-color="#A4FFFF" />
            <stop offset="1" stop-color="#A4FFFF" stop-opacity="0" />
        </linearGradient>
        <linearGradient id="paint19_linear" x1="304.144" y1="255.831" x2="304.144" y2="26.441"
            gradientUnits="userSpaceOnUse">
            <stop stop-color="#A4FFFF" />
            <stop offset="1" stop-color="#A4FFFF" stop-opacity="0" />
        </linearGradient>
        <linearGradient id="paint20_linear" x1="57.3138" y1="470.758" x2="57.3138" y2="346.06"
            gradientUnits="userSpaceOnUse">
            <stop stop-color="#A4FFFF" />
            <stop offset="1" stop-color="#A4FFFF" stop-opacity="0" />
        </linearGradient>
        <linearGradient id="paint21_linear" x1="57.3138" y1="439.554" x2="57.3138" y2="210.168"
            gradientUnits="userSpaceOnUse">
            <stop stop-color="#A4FFFF" />
            <stop offset="1" stop-color="#A4FFFF" stop-opacity="0" />
        </linearGradient>
        <linearGradient id="paint22_linear" x1="315.125" y1="349.146" x2="315.125" y2="224.485"
            gradientUnits="userSpaceOnUse">
            <stop stop-color="#A4FFFF" />
            <stop offset="1" stop-color="#A4FFFF" stop-opacity="0" />
        </linearGradient>
        <linearGradient id="paint23_linear" x1="315.125" y1="317.93" x2="315.125" y2="88.5425"
            gradientUnits="userSpaceOnUse">
            <stop stop-color="#A4FFFF" />
            <stop offset="1" stop-color="#A4FFFF" stop-opacity="0" />
        </linearGradient>
        <linearGradient id="paint24_linear" x1="4.58387" y1="388.719" x2="4.58387" y2="264.02"
            gradientUnits="userSpaceOnUse">
            <stop stop-color="#A4FFFF" />
            <stop offset="1" stop-color="#A4FFFF" stop-opacity="0" />
        </linearGradient>
        <linearGradient id="paint25_linear" x1="4.58485" y1="388.058" x2="4.58485" y2="261.146"
            gradientUnits="userSpaceOnUse">
            <stop stop-color="#A4FFFF" />
            <stop offset="1" stop-color="#A4FFFF" stop-opacity="0" />
        </linearGradient>
        <linearGradient id="paint26_linear" x1="74.044" y1="203.61" x2="74.044" y2="78.9117"
            gradientUnits="userSpaceOnUse">
            <stop stop-color="#A4FFFF" />
            <stop offset="1" stop-color="#A4FFFF" stop-opacity="0" />
        </linearGradient>
        <linearGradient id="paint27_linear" x1="74.0452" y1="213.385" x2="74.0452" y2="121.474"
            gradientUnits="userSpaceOnUse">
            <stop stop-color="#A4FFFF" />
            <stop offset="1" stop-color="#A4FFFF" stop-opacity="0" />
        </linearGradient>
        <linearGradient id="paint28_linear" x1="293.68" y1="420.716" x2="293.68" y2="296.055"
            gradientUnits="userSpaceOnUse">
            <stop stop-color="#A4FFFF" />
            <stop offset="1" stop-color="#A4FFFF" stop-opacity="0" />
        </linearGradient>
        <linearGradient id="paint29_linear" x1="293.679" y1="420.044" x2="293.679" y2="293.129"
            gradientUnits="userSpaceOnUse">
            <stop stop-color="#A4FFFF" />
            <stop offset="1" stop-color="#A4FFFF" stop-opacity="0" />
        </linearGradient>
    </defs>
</svg>